<svg width="32" height="32" viewBox="0 0 32 32" fill="none" xmlns="http://www.w3.org/2000/svg">
<rect x="32" y="32" width="32" height="32" rx="16" transform="rotate(180 32 32)" fill="#F4F6FE"/>
<path d="M14.2667 8.93359L20.4 15.0669C20.5333 15.2003 20.6276 15.3447 20.6827 15.5003C20.7387 15.6558 20.7667 15.8225 20.7667 16.0003C20.7667 16.178 20.7387 16.3447 20.6827 16.5003C20.6276 16.6558 20.5333 16.8003 20.4 16.9336L14.2667 23.0669C14.0222 23.3114 13.7111 23.4336 13.3333 23.4336C12.9556 23.4336 12.6444 23.3114 12.4 23.0669C12.1556 22.8225 12.0333 22.5114 12.0333 22.1336C12.0333 21.7558 12.1556 21.4447 12.4 21.2003L17.6 16.0003L12.4 10.8003C12.1556 10.5558 12.0333 10.2447 12.0333 9.86693C12.0333 9.48915 12.1556 9.17804 12.4 8.93359C12.6444 8.68915 12.9556 8.56693 13.3333 8.56693C13.7111 8.56693 14.0222 8.68915 14.2667 8.93359Z" fill="#667085"/>
</svg>
