<svg width="18" height="18" viewBox="0 0 18 18" fill="none" xmlns="http://www.w3.org/2000/svg">
<path d="M12.75 7.7998L9.3 11.2498C9.225 11.3248 9.14375 11.3778 9.05625 11.4088C8.96875 11.4403 8.875 11.4561 8.775 11.4561C8.675 11.4561 8.58125 11.4403 8.49375 11.4088C8.40625 11.3778 8.325 11.3248 8.25 11.2498L4.8 7.7998C4.6625 7.6623 4.59375 7.48731 4.59375 7.27481C4.59375 7.0623 4.6625 6.88731 4.8 6.74981C4.9375 6.61231 5.1125 6.54355 5.325 6.54355C5.5375 6.54355 5.7125 6.61231 5.85 6.74981L8.775 9.6748L11.7 6.74981C11.8375 6.6123 12.0125 6.54355 12.225 6.54355C12.4375 6.54355 12.6125 6.6123 12.75 6.74981C12.8875 6.8873 12.9563 7.0623 12.9563 7.2748C12.9563 7.4873 12.8875 7.6623 12.75 7.7998Z" fill="#667085"/>
</svg>
