<svg width="18" height="18" viewBox="0 0 18 18" fill="none" xmlns="http://www.w3.org/2000/svg">
<path d="M9.97498 12.9746L6.52498 9.52461C6.44998 9.44961 6.39698 9.36836 6.36598 9.28086C6.33448 9.19336 6.31873 9.09961 6.31873 8.99961C6.31873 8.89961 6.33448 8.80586 6.36598 8.71836C6.39698 8.63086 6.44998 8.54961 6.52498 8.47461L9.97498 5.02461C10.1125 4.88711 10.2875 4.81836 10.5 4.81836C10.7125 4.81836 10.8875 4.88711 11.025 5.02461C11.1625 5.16211 11.2312 5.33711 11.2312 5.54961C11.2312 5.76211 11.1625 5.93711 11.025 6.07461L8.09998 8.99961L11.025 11.9246C11.1625 12.0621 11.2312 12.2371 11.2312 12.4496C11.2312 12.6621 11.1625 12.8371 11.025 12.9746C10.8875 13.1121 10.7125 13.1809 10.5 13.1809C10.2875 13.1809 10.1125 13.1121 9.97498 12.9746Z" fill="#667085"/>
</svg>
