<svg width="18" height="18" viewBox="0 0 18 18" fill="none" xmlns="http://www.w3.org/2000/svg">
<path d="M8.02503 5.02539L11.475 8.47539C11.55 8.55039 11.603 8.63164 11.634 8.71914C11.6655 8.80664 11.6813 8.90039 11.6813 9.00039C11.6813 9.10039 11.6655 9.19414 11.634 9.28164C11.603 9.36914 11.55 9.45039 11.475 9.52539L8.02502 12.9754C7.88752 13.1129 7.71252 13.1816 7.50002 13.1816C7.28752 13.1816 7.11252 13.1129 6.97503 12.9754C6.83752 12.8379 6.76877 12.6629 6.76877 12.4504C6.76877 12.2379 6.83752 12.0629 6.97503 11.9254L9.90002 9.00039L6.97503 6.07539C6.83753 5.93789 6.76878 5.76289 6.76878 5.55039C6.76878 5.33789 6.83753 5.16289 6.97503 5.02539C7.11253 4.88789 7.28753 4.81914 7.50003 4.81914C7.71253 4.81914 7.88753 4.88789 8.02503 5.02539Z" fill="#667085"/>
</svg>
