<svg width="22" height="22" viewBox="0 0 22 22" fill="none" xmlns="http://www.w3.org/2000/svg">
<path d="M5.72917 9.89271C4.2097 9.89271 2.75246 10.4963 1.67803 11.5707C0.603607 12.6452 0 14.1024 0 15.6219C0 17.1413 0.603607 18.5986 1.67803 19.673C2.75246 20.7474 4.2097 21.351 5.72917 21.351C7.24864 21.351 8.70587 20.7474 9.7803 19.673C10.8547 18.5986 11.4583 17.1413 11.4583 15.6219C11.4583 14.1024 10.8547 12.6452 9.7803 11.5707C8.70587 10.4963 7.24864 9.89271 5.72917 9.89271ZM5.72917 11.976L5.82292 11.9844C5.92698 12.0034 6.02279 12.0536 6.0976 12.1284C6.1724 12.2032 6.22266 12.2991 6.24167 12.4031L6.25 12.4969V15.101H8.85625L8.95 15.1104C9.05407 15.1294 9.14988 15.1797 9.22468 15.2545C9.29949 15.3293 9.34974 15.4251 9.36875 15.5292L9.37708 15.6229L9.36875 15.7167C9.34974 15.8207 9.29949 15.9165 9.22468 15.9913C9.14988 16.0662 9.05407 16.1164 8.95 16.1354L8.85625 16.1437H6.25V18.751L6.24167 18.8448C6.22266 18.9489 6.1724 19.0447 6.0976 19.1195C6.02279 19.1943 5.92698 19.2445 5.82292 19.2635L5.72917 19.2719L5.63542 19.2635C5.53135 19.2445 5.43554 19.1943 5.36073 19.1195C5.28593 19.0447 5.23568 18.9489 5.21667 18.8448L5.20833 18.751V16.1427H2.6L2.50625 16.1354C2.40218 16.1164 2.30637 16.0662 2.23157 15.9913C2.15676 15.9165 2.10651 15.8207 2.0875 15.7167L2.07917 15.6229L2.0875 15.5292C2.10658 15.425 2.15699 15.329 2.23199 15.2542C2.307 15.1794 2.40303 15.1292 2.50729 15.1104L2.60104 15.1021H5.20833V12.4979L5.21667 12.4042C5.23549 12.2999 5.28566 12.2039 5.36048 12.1289C5.4353 12.0539 5.53121 12.0035 5.63542 11.9844L5.72917 11.976ZM9.45312 0.00104159C9.04475 0.00100885 8.64344 0.107682 8.28898 0.310492C7.93452 0.513302 7.6392 0.80521 7.43229 1.15729L6.58437 2.60208H4.42708C3.5294 2.60208 2.66846 2.95862 2.0336 3.59328C1.39874 4.22794 1.04194 5.08877 1.04167 5.98646V10.7365C2.30105 9.52467 3.98146 8.84877 5.72917 8.85104C6.1625 8.85104 6.58646 8.89167 6.99792 8.96979C7.25077 8.18799 7.70463 7.48637 8.31405 6.93522C8.92346 6.38407 9.66701 6.00276 10.4702 5.82948C11.2734 5.6562 12.108 5.69704 12.8905 5.94792C13.6729 6.19879 14.3757 6.65089 14.9283 7.2589C15.481 7.86692 15.8642 8.60951 16.0395 9.41226C16.2148 10.215 16.1761 11.0497 15.9272 11.8328C15.6783 12.6159 15.228 13.3198 14.6214 13.874C14.0148 14.4282 13.2731 14.8133 12.4708 14.9906C12.6107 16.4918 12.2464 17.9968 11.4354 19.2677H18.4896C19.3875 19.2677 20.2485 18.911 20.8834 18.2761C21.5183 17.6413 21.875 16.7802 21.875 15.8823V5.98646C21.875 5.08859 21.5183 4.2275 20.8834 3.59261C20.2485 2.95772 19.3875 2.60104 18.4896 2.60104H16.3229L15.4115 1.11771C15.2019 0.77627 14.9083 0.494252 14.5587 0.298578C14.2091 0.102903 13.8152 0.000105971 13.4146 0H9.45312V0.00104159ZM11.4583 7.28854C10.8002 7.28852 10.159 7.49626 9.62587 7.88214C9.09278 8.26801 8.69513 8.81233 8.48958 9.4375C9.3436 9.81987 10.1094 10.3746 10.7389 11.0669C11.3685 11.7591 11.8482 12.574 12.1479 13.4604C12.8956 13.2889 13.554 12.8483 13.9979 12.2226C14.4417 11.5969 14.6399 10.8299 14.5547 10.0675C14.4695 9.30515 14.1069 8.60076 13.5359 8.08849C12.9649 7.57622 12.2254 7.29187 11.4583 7.28958V7.28854Z" fill="#222222"/>
</svg>
