<svg width="20" height="20" viewBox="0 0 20 20" fill="none" xmlns="http://www.w3.org/2000/svg">
<path d="M16.5 18.8333L13 15.375C12.5139 15.5278 12.0245 15.6425 11.5317 15.7191C11.0389 15.7958 10.5284 15.8339 10 15.8333C7.90282 15.8333 6.03476 15.2536 4.39587 14.0941C2.75699 12.9347 1.56949 11.4311 0.833374 9.58331C1.12504 8.8472 1.4931 8.16303 1.93754 7.53081C2.38199 6.89859 2.88893 6.33276 3.45837 5.83331L1.16671 3.49998L2.33337 2.33331L17.6667 17.6666L16.5 18.8333ZM10 13.3333C10.1528 13.3333 10.2953 13.3264 10.4275 13.3125C10.5598 13.2986 10.702 13.2708 10.8542 13.2291L6.35421 8.72915C6.31254 8.88192 6.28476 9.02442 6.27087 9.15665C6.25699 9.28887 6.25004 9.43109 6.25004 9.58331C6.25004 10.625 6.61476 11.5105 7.34421 12.24C8.07365 12.9694 8.95893 13.3339 10 13.3333ZM16.0834 13.7083L13.4375 11.0833C13.5348 10.8472 13.6112 10.6075 13.6667 10.3641C13.7223 10.1208 13.75 9.86053 13.75 9.58331C13.75 8.54165 13.3853 7.65609 12.6559 6.92665C11.9264 6.1972 11.0412 5.83276 10 5.83331C9.72226 5.83331 9.46171 5.86109 9.21837 5.91665C8.97504 5.9722 8.7356 6.05554 8.50004 6.16665L6.37504 4.04165C6.94449 3.80554 7.52782 3.62859 8.12504 3.51081C8.72226 3.39304 9.34726 3.33387 10 3.33331C12.0973 3.33331 13.9653 3.91304 15.6042 5.07248C17.2431 6.23192 18.4306 7.73554 19.1667 9.58331C18.8473 10.4028 18.427 11.1633 17.9059 11.865C17.3848 12.5666 16.7773 13.1811 16.0834 13.7083ZM12.2292 9.87498L9.72921 7.37498C10.1181 7.30554 10.4759 7.33692 10.8025 7.46915C11.1292 7.60137 11.4103 7.7922 11.6459 8.04165C11.882 8.29165 12.0523 8.57998 12.1567 8.90665C12.2612 9.23331 12.2853 9.55609 12.2292 9.87498Z" fill="#667085"/>
</svg>
