<svg width="20" height="20" viewBox="0 0 20 20" fill="none" xmlns="http://www.w3.org/2000/svg">
<path d="M9.99998 3.33337C5.83331 3.33337 2.27498 5.92504 0.833313 9.58337C2.27498 13.2417 5.83331 15.8334 9.99998 15.8334C14.1666 15.8334 17.725 13.2417 19.1666 9.58337C17.725 5.92504 14.1666 3.33337 9.99998 3.33337ZM9.99998 13.75C7.69998 13.75 5.83331 11.8834 5.83331 9.58337C5.83331 7.28337 7.69998 5.41671 9.99998 5.41671C12.3 5.41671 14.1666 7.28337 14.1666 9.58337C14.1666 11.8834 12.3 13.75 9.99998 13.75ZM9.99998 7.08337C8.61665 7.08337 7.49998 8.20004 7.49998 9.58337C7.49998 10.9667 8.61665 12.0834 9.99998 12.0834C11.3833 12.0834 12.5 10.9667 12.5 9.58337C12.5 8.20004 11.3833 7.08337 9.99998 7.08337Z" fill="#667085"/>
</svg>
