<svg width="24" height="24" viewBox="0 0 24 24" fill="none" xmlns="http://www.w3.org/2000/svg">
<path d="M12.9823 2.26376C12.631 1.9905 12.4553 1.85388 12.2613 1.80136C12.0902 1.75502 11.9098 1.75502 11.7387 1.80136C11.5447 1.85388 11.369 1.9905 11.0177 2.26375L4.23539 7.53888C3.78202 7.8915 3.55534 8.06781 3.39203 8.28861C3.24737 8.4842 3.1396 8.70454 3.07403 8.93881C3 9.20327 3 9.49045 3 10.0648V17.2997C3 18.4198 3 18.9799 3.21799 19.4077C3.40973 19.784 3.71569 20.09 4.09202 20.2818C4.51984 20.4997 5.0799 20.4997 6.2 20.4997H8.2C8.48003 20.4997 8.62004 20.4997 8.727 20.4452C8.82108 20.3973 8.89757 20.3208 8.9455 20.2267C9 20.1198 9 19.9798 9 19.6997V13.0997C9 12.5397 9 12.2597 9.10899 12.0457C9.20487 11.8576 9.35785 11.7046 9.54601 11.6087C9.75992 11.4997 10.0399 11.4997 10.6 11.4997H13.4C13.9601 11.4997 14.2401 11.4997 14.454 11.6087C14.6422 11.7046 14.7951 11.8576 14.891 12.0457C15 12.2597 15 12.5397 15 13.0997V19.6997C15 19.9798 15 20.1198 15.0545 20.2267C15.1024 20.3208 15.1789 20.3973 15.273 20.4452C15.38 20.4997 15.52 20.4997 15.8 20.4997H17.8C18.9201 20.4997 19.4802 20.4997 19.908 20.2818C20.2843 20.09 20.5903 19.784 20.782 19.4077C21 18.9799 21 18.4198 21 17.2997V10.0648C21 9.49045 21 9.20327 20.926 8.93881C20.8604 8.70454 20.7526 8.4842 20.608 8.28861C20.4447 8.06781 20.218 7.8915 19.7646 7.53888L12.9823 2.26376Z" stroke="#667085" stroke-width="2" stroke-linecap="round" stroke-linejoin="round"/>
</svg>
