<svg width="24" height="24" viewBox="0 0 24 24" fill="none" xmlns="http://www.w3.org/2000/svg">
<path d="M12.9823 2.264C12.631 1.99075 12.4553 1.85412 12.2613 1.8016C12.0902 1.75526 11.9098 1.75526 11.7387 1.8016C11.5447 1.85412 11.369 1.99075 11.0177 2.264L4.23539 7.53912C3.78202 7.89175 3.55534 8.06806 3.39203 8.28886C3.24737 8.48444 3.1396 8.70478 3.07403 8.93905C3 9.20352 3 9.4907 3 10.0651V17.3C3 18.4201 3 18.9801 3.21799 19.408C3.40973 19.7843 3.71569 20.0903 4.09202 20.282C4.51984 20.5 5.0799 20.5 6.2 20.5H8.2C8.48003 20.5 8.62004 20.5 8.727 20.4455C8.82108 20.3976 8.89757 20.3211 8.9455 20.227C9 20.12 9 19.98 9 19.7V13.1C9 12.5399 9 12.2599 9.10899 12.046C9.20487 11.8578 9.35785 11.7049 9.54601 11.609C9.75992 11.5 10.0399 11.5 10.6 11.5H13.4C13.9601 11.5 14.2401 11.5 14.454 11.609C14.6422 11.7049 14.7951 11.8578 14.891 12.046C15 12.2599 15 12.5399 15 13.1V19.7C15 19.98 15 20.12 15.0545 20.227C15.1024 20.3211 15.1789 20.3976 15.273 20.4455C15.38 20.5 15.52 20.5 15.8 20.5H17.8C18.9201 20.5 19.4802 20.5 19.908 20.282C20.2843 20.0903 20.5903 19.7843 20.782 19.408C21 18.9801 21 18.4201 21 17.3V10.0651C21 9.4907 21 9.20352 20.926 8.93905C20.8604 8.70478 20.7526 8.48444 20.608 8.28886C20.4447 8.06806 20.218 7.89175 19.7646 7.53913L12.9823 2.264Z" stroke="#7D086B" stroke-width="2" stroke-linecap="round" stroke-linejoin="round"/>
</svg>
