<svg width="32" height="32" viewBox="0 0 32 32" fill="none" xmlns="http://www.w3.org/2000/svg">
<path d="M8.00004 2.66699H20C20.7073 2.66699 21.3856 2.94794 21.8857 3.44804C22.3858 3.94814 22.6667 4.62641 22.6667 5.33366V8.00033H20V5.33366H8.00004V26.667H20V24.0003H22.6667V26.667C22.6667 27.3742 22.3858 28.0525 21.8857 28.5526C21.3856 29.0527 20.7073 29.3337 20 29.3337H8.00004C7.2928 29.3337 6.61452 29.0527 6.11442 28.5526C5.61433 28.0525 5.33337 27.3742 5.33337 26.667V5.33366C5.33337 4.62641 5.61433 3.94814 6.11442 3.44804C6.61452 2.94794 7.2928 2.66699 8.00004 2.66699Z" fill="#667085"/>
<path d="M21.4533 20.7863L23.3333 22.6663L30 15.9997L23.3333 9.33301L21.4533 11.213L24.8933 14.6663H12V17.333H24.8933L21.4533 20.7863Z" fill="#667085"/>
</svg>
