<svg width="362" height="362" viewBox="0 0 362 362" fill="none" xmlns="http://www.w3.org/2000/svg">
<circle cx="181" cy="181" r="181" fill="#FCB900" fill-opacity="0.1"/>
<circle cx="181" cy="181" r="142" fill="#FCB900" fill-opacity="0.3"/>
<circle cx="181" cy="181" r="87" fill="#FCB900" fill-opacity="0.7"/>
<circle cx="56" cy="112" r="24" fill="white"/>
<circle cx="118" cy="303" r="24" fill="white"/>
<circle cx="236" cy="56" r="24" fill="white"/>
<circle cx="298" cy="257" r="24" fill="white"/>
<path d="M236 58C235.167 58 234.458 57.7083 233.875 57.125C233.292 56.5417 233 55.8333 233 55V49C233 48.1667 233.292 47.4583 233.875 46.875C234.458 46.2917 235.167 46 236 46C236.833 46 237.542 46.2917 238.125 46.875C238.708 47.4583 239 48.1667 239 49V55C239 55.8333 238.708 56.5417 238.125 57.125C237.542 57.7083 236.833 58 236 58ZM235 65V61.925C233.267 61.6917 231.833 60.9167 230.7 59.6C229.567 58.2833 229 56.75 229 55H231C231 56.3833 231.488 57.5623 232.463 58.537C233.438 59.5123 234.617 60 236 60C237.383 60 238.563 59.5123 239.538 58.537C240.513 57.5623 241 56.3833 241 55H243C243 56.75 242.433 58.2833 241.3 59.6C240.167 60.9167 238.733 61.6917 237 61.925V65H235ZM236 56C236.283 56 236.521 55.904 236.713 55.712C236.904 55.5207 237 55.2833 237 55V49C237 48.7167 236.904 48.479 236.713 48.287C236.521 48.0957 236.283 48 236 48C235.717 48 235.479 48.0957 235.288 48.287C235.096 48.479 235 48.7167 235 49V55C235 55.2833 235.096 55.5207 235.288 55.712C235.479 55.904 235.717 56 236 56Z" fill="#121212"/>
<path d="M118 308.5C119.25 308.5 120.313 308.063 121.188 307.188C122.063 306.313 122.5 305.25 122.5 304C122.5 302.75 122.063 301.687 121.188 300.812C120.313 299.937 119.25 299.5 118 299.5C116.75 299.5 115.687 299.937 114.812 300.812C113.937 301.687 113.5 302.75 113.5 304C113.5 305.25 113.937 306.313 114.812 307.188C115.687 308.063 116.75 308.5 118 308.5ZM118 306.5C117.3 306.5 116.708 306.258 116.225 305.775C115.742 305.292 115.5 304.7 115.5 304C115.5 303.3 115.742 302.708 116.225 302.225C116.708 301.742 117.3 301.5 118 301.5C118.7 301.5 119.292 301.742 119.775 302.225C120.258 302.708 120.5 303.3 120.5 304C120.5 304.7 120.258 305.292 119.775 305.775C119.292 306.258 118.7 306.5 118 306.5ZM110 312C109.45 312 108.979 311.804 108.588 311.413C108.196 311.021 108 310.55 108 310V298C108 297.45 108.196 296.979 108.588 296.588C108.979 296.196 109.45 296 110 296H113.15L115 294H121L122.85 296H126C126.55 296 127.021 296.196 127.413 296.588C127.804 296.979 128 297.45 128 298V310C128 310.55 127.804 311.021 127.413 311.413C127.021 311.804 126.55 312 126 312H110ZM126 310V298H121.95L120.125 296H115.875L114.05 298H110V310H126Z" fill="#121212"/>
<path d="M180 207.667C173.822 206.111 168.723 202.566 164.701 197.032C160.678 191.499 158.667 185.355 158.667 178.6V162.333L180 154.333L201.333 162.333V178.6C201.333 185.355 199.323 191.499 195.301 197.032C191.278 202.566 186.178 206.111 180 207.667ZM180 202.067C184.311 200.733 187.911 198.1 190.8 194.168C193.689 190.234 195.378 185.844 195.867 181H180V160L164 166V179.8C164 180.111 164.044 180.511 164.133 181H180V202.067Z" fill="black"/>
<path d="M305 250V264H291V250H305ZM305 248H291C289.9 248 289 248.9 289 250V264C289 265.1 289.9 266 291 266H305C306.1 266 307 265.1 307 264V250C307 248.9 306.1 248 305 248ZM300.14 256.86L297.14 260.73L295 258.14L292 262H304L300.14 256.86Z" fill="#121212"/>
<path d="M47 103.993C47 103.445 47.445 103 47.993 103H64.007C64.555 103 65 103.445 65 103.993V120.007C64.9997 120.27 64.895 120.523 64.7089 120.709C64.5227 120.895 64.2703 121 64.007 121H47.993C47.7297 121 47.4773 120.895 47.2911 120.709C47.105 120.523 47.0003 120.27 47 120.007V103.993ZM54.622 108.415C54.5618 108.375 54.4919 108.352 54.4196 108.348C54.3473 108.345 54.2755 108.361 54.2116 108.395C54.1478 108.429 54.0944 108.48 54.0572 108.542C54.0199 108.604 54.0001 108.675 54 108.747V115.253C54.0001 115.325 54.0199 115.396 54.0572 115.458C54.0944 115.52 54.1478 115.571 54.2116 115.605C54.2755 115.639 54.3473 115.655 54.4196 115.652C54.4919 115.648 54.5618 115.625 54.622 115.585L59.501 112.333C59.5559 112.296 59.6009 112.247 59.632 112.189C59.6631 112.131 59.6794 112.066 59.6794 112C59.6794 111.934 59.6631 111.869 59.632 111.811C59.6009 111.753 59.5559 111.704 59.501 111.667L54.621 108.415H54.622Z" fill="#121212"/>
</svg>
