<svg width="32" height="32" viewBox="0 0 32 32" fill="none" xmlns="http://www.w3.org/2000/svg">
<path d="M16 2.66699C8.63996 2.66699 2.66663 8.64033 2.66663 16.0003C2.66663 23.3603 8.63996 29.3337 16 29.3337C23.36 29.3337 29.3333 23.3603 29.3333 16.0003C29.3333 8.64033 23.36 2.66699 16 2.66699ZM16 6.66699C18.2133 6.66699 20 8.45366 20 10.667C20 12.8803 18.2133 14.667 16 14.667C13.7866 14.667 12 12.8803 12 10.667C12 8.45366 13.7866 6.66699 16 6.66699ZM16 25.6003C12.6666 25.6003 9.71996 23.8937 7.99996 21.307C8.03996 18.6537 13.3333 17.2003 16 17.2003C18.6533 17.2003 23.96 18.6537 24 21.307C22.28 23.8937 19.3333 25.6003 16 25.6003Z" fill="#667085"/>
</svg>
