<svg width="20" height="20" viewBox="0 0 20 20" fill="none" xmlns="http://www.w3.org/2000/svg">
<path d="M4.99992 19.1666C4.54159 19.1666 4.14936 19.0035 3.82325 18.6774C3.49659 18.3507 3.33325 17.9583 3.33325 17.4999L3.33325 8.33325C3.33325 7.87492 3.49659 7.48242 3.82325 7.15575C4.14936 6.82964 4.54159 6.66658 4.99992 6.66658L7.49992 6.66658V8.33325H4.99992L4.99992 17.4999L14.9999 17.4999L14.9999 8.33325H12.4999V6.66658H14.9999C15.4583 6.66658 15.8508 6.82964 16.1774 7.15575C16.5035 7.48242 16.6666 7.87492 16.6666 8.33325L16.6666 17.4999C16.6666 17.9583 16.5035 18.3507 16.1774 18.6774C15.8508 19.0035 15.4583 19.1666 14.9999 19.1666L4.99992 19.1666ZM9.16658 13.3333L9.16658 4.02075L7.83325 5.35408L6.66659 4.16658L9.99992 0.833252L13.3333 4.16658L12.1666 5.35408L10.8333 4.02075L10.8333 13.3333H9.16658Z" fill="#6B778C"/>
</svg>
