<svg width="128" height="128" viewBox="0 0 128 128" fill="none" xmlns="http://www.w3.org/2000/svg">
<path d="M64 12C62.4236 12.0005 60.8628 12.3115 59.4066 12.9153C57.9504 13.519 56.6274 14.4037 55.5131 15.5187C54.3988 16.6338 53.515 17.9574 52.9122 19.414C52.3094 20.8706 51.9995 22.4316 52 24.008C52.0005 25.5844 52.3115 27.1452 52.9153 28.6014C53.519 30.0576 54.4037 31.3806 55.5187 32.4949C56.6338 33.6092 57.9574 34.493 59.414 35.0958C60.8706 35.6986 62.4316 36.0085 64.008 36.008C67.1917 36.0069 70.2445 34.7412 72.4949 32.4893C74.7454 30.2373 76.0091 27.1837 76.008 24C76.0069 20.8163 74.7412 17.7635 72.4893 15.5131C70.2373 13.2626 67.1837 11.9989 64 12ZM35.748 25.752C33.0965 25.7541 30.5542 26.8084 28.6793 28.6833C26.8044 30.5582 25.7501 33.1005 25.748 35.752C25.748 41.264 30.236 45.752 35.748 45.752C38.4002 45.752 40.9437 44.6984 42.8191 42.8231C44.6944 40.9477 45.748 38.4042 45.748 35.752C45.748 33.0998 44.6944 30.5563 42.8191 28.6809C40.9437 26.8056 38.4002 25.752 35.748 25.752ZM92.252 31.752C90.048 31.752 88.252 33.548 88.252 35.752C88.252 37.952 90.048 39.752 92.252 39.752C94.452 39.752 96.252 37.952 96.252 35.752C96.252 33.548 94.452 31.752 92.252 31.752ZM24 55C22.8178 55.0003 21.6473 55.2334 20.5552 55.686C19.4632 56.1386 18.4709 56.8019 17.6352 57.638C16.7995 58.4741 16.1366 59.4667 15.6845 60.5589C15.2323 61.6512 14.9997 62.8218 15 64.004C15.0003 65.1862 15.2334 66.3567 15.686 67.4488C16.1386 68.5408 16.8019 69.5331 17.638 70.3688C18.4741 71.2045 19.4667 71.8674 20.5589 72.3195C21.6512 72.7717 22.8218 73.0043 24.004 73.004C26.3915 73.0035 28.681 72.0545 30.3688 70.366C32.0566 68.6774 33.0045 66.3875 33.004 64C33.0035 61.6125 32.0545 59.323 30.366 57.6352C28.6774 55.9474 26.3875 54.9995 24 55ZM104 59C103.327 58.9725 102.656 59.0813 102.026 59.3197C101.396 59.5581 100.821 59.9214 100.335 60.3875C99.8488 60.8537 99.462 61.4133 99.1976 62.0326C98.9332 62.652 98.7966 63.3184 98.7961 63.9918C98.7955 64.6653 98.9311 65.3319 99.1945 65.9517C99.4579 66.5714 99.8438 67.1316 100.329 67.5986C100.814 68.0656 101.389 68.4297 102.018 68.6691C102.648 68.9086 103.319 69.0184 103.992 68.992C105.282 68.9414 106.503 68.3934 107.399 67.4629C108.294 66.5323 108.795 65.2913 108.796 63.9998C108.797 62.7084 108.298 61.4666 107.404 60.5346C106.51 59.6026 105.29 59.0527 104 59ZM35.748 84.252C31.328 84.252 27.748 87.828 27.748 92.252C27.748 94.3737 28.5909 96.4086 30.0911 97.9089C31.5914 99.4091 33.6263 100.252 35.748 100.252C37.8697 100.252 39.9046 99.4091 41.4049 97.9089C42.9051 96.4086 43.748 94.3737 43.748 92.252C43.748 87.828 40.172 84.252 35.748 84.252ZM92.252 86.252C91.4641 86.252 90.6839 86.4072 89.9559 86.7087C89.2279 87.0103 88.5665 87.4522 88.0094 88.0094C87.4522 88.5665 87.0103 89.2279 86.7087 89.9559C86.4072 90.6839 86.252 91.4641 86.252 92.252C86.252 93.0399 86.4072 93.8201 86.7087 94.5481C87.0103 95.2761 87.4522 95.9375 88.0094 96.4946C88.5665 97.0518 89.2279 97.4938 89.9559 97.7953C90.6839 98.0968 91.4641 98.252 92.252 98.252C93.8433 98.252 95.3694 97.6199 96.4946 96.4946C97.6199 95.3694 98.252 93.8433 98.252 92.252C98.252 90.6607 97.6199 89.1346 96.4946 88.0094C95.3694 86.8841 93.8433 86.252 92.252 86.252ZM64 97C60.14 97 57 100.14 57 104C57 107.86 60.14 111 64 111C67.86 111 71 107.86 71 104C71 100.14 67.86 97 64 97Z" fill="white"/>
</svg>
