<svg width="24" height="24" viewBox="0 0 24 24" fill="none" xmlns="http://www.w3.org/2000/svg">
<path d="M12 2.25C11.7044 2.2501 11.4118 2.30841 11.1387 2.42162C10.8657 2.53482 10.6176 2.70069 10.4087 2.90976C10.1998 3.11883 10.0341 3.36701 9.92104 3.64012C9.80802 3.91323 9.7499 4.20593 9.75 4.5015C9.7501 4.79707 9.80841 5.08973 9.92161 5.36277C10.0348 5.6358 10.2007 5.88387 10.4098 6.0928C10.6188 6.30173 10.867 6.46744 11.1401 6.58046C11.4132 6.69348 11.7059 6.7516 12.0015 6.7515C12.5984 6.7513 13.1708 6.51398 13.5928 6.09174C14.0148 5.6695 14.2517 5.09694 14.2515 4.5C14.2513 3.90306 14.014 3.33066 13.5917 2.9087C13.1695 2.48674 12.5969 2.2498 12 2.25ZM6.70275 4.8285C6.20559 4.8289 5.72891 5.02657 5.37736 5.37811C5.02582 5.72966 4.82815 6.20634 4.82775 6.7035C4.82775 7.737 5.66925 8.5785 6.70275 8.5785C7.20003 8.5785 7.67694 8.38096 8.02858 8.02933C8.38021 7.67769 8.57775 7.20078 8.57775 6.7035C8.57775 6.20622 8.38021 5.72931 8.02858 5.37768C7.67694 5.02604 7.20003 4.8285 6.70275 4.8285ZM17.2972 5.9535C16.884 5.9535 16.5472 6.29025 16.5472 6.7035C16.5472 7.116 16.884 7.4535 17.2972 7.4535C17.7098 7.4535 18.0472 7.116 18.0472 6.7035C18.0472 6.29025 17.7098 5.9535 17.2972 5.9535ZM4.5 10.3125C4.27835 10.3125 4.05887 10.3563 3.85411 10.4411C3.64934 10.526 3.4633 10.6504 3.3066 10.8071C3.1499 10.9639 3.02562 11.15 2.94084 11.3548C2.85606 11.5596 2.81245 11.7791 2.8125 12.0007C2.81255 12.2224 2.85626 12.4419 2.94113 12.6466C3.02599 12.8514 3.15036 13.0374 3.30713 13.1941C3.4639 13.3508 3.65 13.4751 3.8548 13.5599C4.0596 13.6447 4.2791 13.6883 4.50075 13.6882C4.9484 13.6882 5.37768 13.5102 5.69415 13.1936C6.01062 12.877 6.18835 12.4477 6.18825 12C6.18815 11.5523 6.01023 11.1231 5.69362 10.8066C5.37701 10.4901 4.94765 10.3124 4.5 10.3125ZM19.5 11.0625C19.3738 11.0574 19.2479 11.0777 19.1298 11.1224C19.0117 11.1672 18.9039 11.2353 18.8128 11.3227C18.7217 11.4101 18.6491 11.515 18.5996 11.6311C18.55 11.7473 18.5244 11.8722 18.5243 11.9985C18.5242 12.1247 18.5496 12.2497 18.599 12.3659C18.6484 12.4821 18.7207 12.5872 18.8117 12.6747C18.9027 12.7623 19.0104 12.8306 19.1284 12.8755C19.2465 12.9204 19.3723 12.9409 19.4985 12.936C19.7405 12.9265 19.9694 12.8238 20.1373 12.6493C20.3052 12.4748 20.3991 12.2421 20.3993 12C20.3995 11.7578 20.3059 11.525 20.1383 11.3502C19.9707 11.1755 19.7419 11.0724 19.5 11.0625ZM6.70275 15.7972C5.874 15.7972 5.20275 16.4677 5.20275 17.2972C5.20275 17.6951 5.36079 18.0766 5.64209 18.3579C5.92339 18.6392 6.30493 18.7972 6.70275 18.7972C7.10057 18.7972 7.48211 18.6392 7.76341 18.3579C8.04471 18.0766 8.20275 17.6951 8.20275 17.2972C8.20275 16.4677 7.53225 15.7972 6.70275 15.7972ZM17.2972 16.1722C17.1495 16.1722 17.0032 16.2013 16.8667 16.2579C16.7302 16.3144 16.6062 16.3973 16.5018 16.5018C16.3973 16.6062 16.3144 16.7302 16.2579 16.8667C16.2013 17.0032 16.1722 17.1495 16.1722 17.2972C16.1722 17.445 16.2013 17.5913 16.2579 17.7278C16.3144 17.8643 16.3973 17.9883 16.5018 18.0927C16.6062 18.1972 16.7302 18.2801 16.8667 18.3366C17.0032 18.3932 17.1495 18.4223 17.2972 18.4222C17.5956 18.4222 17.8818 18.3037 18.0927 18.0927C18.3037 17.8818 18.4222 17.5956 18.4222 17.2972C18.4222 16.9989 18.3037 16.7127 18.0927 16.5018C17.8818 16.2908 17.5956 16.1722 17.2972 16.1722ZM12 18.1875C11.2762 18.1875 10.6875 18.7763 10.6875 19.5C10.6875 20.2237 11.2762 20.8125 12 20.8125C12.7238 20.8125 13.3125 20.2237 13.3125 19.5C13.3125 18.7763 12.7238 18.1875 12 18.1875Z" fill="black"/>
</svg>
